{"accessors":[{"bufferView":2,"componentType":5126,"count":2412,"max":[4.200133323669434,7.507920265197754,16.018566131591797],"min":[0,0,0],"type":"VEC3"},{"bufferView":2,"byteOffset":28944,"componentType":5126,"count":2412,"max":[1,1,1],"min":[-1,-1,-1],"type":"VEC3"},{"bufferView":3,"componentType":5126,"count":2412,"max":[1,1,1,1],"min":[-1,-1,-1,-1],"type":"VEC4"},{"bufferView":1,"componentType":5126,"count":2412,"max":[0.9900000095367432,0.9900000095367432],"min":[0.009999999776482582,0.011971999891102314],"type":"VEC2"},{"bufferView":0,"componentType":5125,"count":7452,"max":[2411],"min":[0],"type":"SCALAR"}],"asset":{"extras":{"author":"Larry (https://sketchfab.com/laurent-dem1994)","license":"CC-BY-4.0 (http://creativecommons.org/licenses/by/4.0/)","source":"https://sketchfab.com/models/fb601a53e5fa466fbda3e9a49b7008f1","title":"Vape - IT"},"generator":"Sketchfab-3.19.4","version":"2.0"},"bufferViews":[{"buffer":0,"byteLength":29808,"byteOffset":0,"name":"floatBufferViews","target":34963},{"buffer":0,"byteLength":19296,"byteOffset":29808,"byteStride":8,"name":"floatBufferViews","target":34962},{"buffer":0,"byteLength":57888,"byteOffset":49104,"byteStride":12,"name":"floatBufferViews","target":34962},{"buffer":0,"byteLength":38592,"byteOffset":106992,"byteStride":16,"name":"floatBufferViews","target":34962}],"buffers":[{"byteLength":145584,"uri":"data:application/octet-stream;base64,"}],"images":[{"uri":"data:application/octet-stream;base64,"},{"uri":"data:application/octet-stream;base64,"}],"materials":[{"doubleSided":true,"emissiveFactor":[0,0,0],"name":"initialShadingGroup","pbrMetallicRoughness":{"baseColorFactor":[1,1,1,1],"baseColorTexture":{"index":0,"texCoord":0},"metallicFactor":1,"metallicRoughnessTexture":{"index":1,"texCoord":0},"roughnessFactor":1}}],"meshes":[{"primitives":[{"attributes":{"NORMAL":1,"POSITION":0,"TANGENT":2,"TEXCOORD_0":3},"indices":4,"material":0,"mode":4}]}],"nodes":[{"children":[1],"name":"RootNode (gltf orientation matrix)","rotation":[-0.7071067811865475,0,0,0.7071067811865476]},{"children":[2],"name":"RootNode (model correction matrix)"},{"children":[3],"matrix":[1,0,0,0,0,1,0,0,0,0,1,0,8.03400707244873,-20.10758399963379,0.2817850112915039,1],"name":"3a73e4e24347448c950c6a5d4cd09cc4.obj.cleaner.gles"},{"mesh":0,"name":""}],"samplers":[{"magFilter":9729,"minFilter":9987,"wrapS":10497,"wrapT":10497},{"magFilter":9729,"minFilter":9729,"wrapS":10497,"wrapT":10497}],"scene":0,"scenes":[{"name":"OSG_Scene","nodes":[0]}],"textures":[{"sampler":0,"source":0},{"sampler":0,"source":1}]}